<?xml version="1.0" standalone="no"?><!DOCTYPE svg PUBLIC "-//W3C//DTD SVG 1.1//EN" "http://www.w3.org/Graphics/SVG/1.1/DTD/svg11.dtd"><svg t="1616817012454" class="icon" viewBox="0 0 1024 1024" version="1.1" xmlns="http://www.w3.org/2000/svg" p-id="2611" xmlns:xlink="http://www.w3.org/1999/xlink" width="200" height="200"><defs><style type="text/css"></style></defs><path d="M60.235294 602.352941v361.411765h361.411765V602.352941H60.235294z m0-60.235294h361.411765a60.235294 60.235294 0 0 1 60.235294 60.235294v361.411765a60.235294 60.235294 0 0 1-60.235294 60.235294H60.235294a60.235294 60.235294 0 0 1-60.235294-60.235294V602.352941a60.235294 60.235294 0 0 1 60.235294-60.235294zM60.235294 60.235294v361.411765h361.411765V60.235294H60.235294z m0-60.235294h361.411765a60.235294 60.235294 0 0 1 60.235294 60.235294v361.411765a60.235294 60.235294 0 0 1-60.235294 60.235294H60.235294a60.235294 60.235294 0 0 1-60.235294-60.235294V60.235294a60.235294 60.235294 0 0 1 60.235294-60.235294z m542.117647 602.352941v361.411765h361.411765V602.352941H602.352941z m0-60.235294h361.411765a60.235294 60.235294 0 0 1 60.235294 60.235294v361.411765a60.235294 60.235294 0 0 1-60.235294 60.235294H602.352941a60.235294 60.235294 0 0 1-60.235294-60.235294V602.352941a60.235294 60.235294 0 0 1 60.235294-60.235294z m0-481.882353v361.411765h361.411765V60.235294H602.352941z m0-60.235294h361.411765a60.235294 60.235294 0 0 1 60.235294 60.235294v361.411765a60.235294 60.235294 0 0 1-60.235294 60.235294H602.352941a60.235294 60.235294 0 0 1-60.235294-60.235294V60.235294a60.235294 60.235294 0 0 1 60.235294-60.235294z" fill="#2c2c2c" p-id="2612"></path></svg>