<?xml version="1.0" standalone="no"?><!DOCTYPE svg PUBLIC "-//W3C//DTD SVG 1.1//EN" "http://www.w3.org/Graphics/SVG/1.1/DTD/svg11.dtd"><svg t="1616808868135" class="icon" viewBox="0 0 1024 1024" version="1.1" xmlns="http://www.w3.org/2000/svg" p-id="3126" xmlns:xlink="http://www.w3.org/1999/xlink" width="200" height="200"><defs><style type="text/css"></style></defs><path d="M911.6 413L567.8 137.6c-32.4-27-79.2-27-113.4 0L112.4 413c-19.8 16.2-27 41.4-18 64.8 9 25.2 30.6 39.6 57.6 39.6h27v316.8c0 39.6 39.6 72 88.2 72H377c1.8 0 5.4 0 7.2-1.8h3.6c10.8 0 18-7.2 18-18V656c0-18 16.2-32.4 36-32.4h136.8c19.8 0 36 14.4 36 32.4v234c0 10.8 7.2 18 18 18h120.6c48.6 0 88.2-32.4 88.2-72V517.4h34.2c27 0 48.6-16.2 57.6-39.6 5.4-23.4-1.8-48.6-21.6-64.8z m-14.4 52.2c-3.6 7.2-10.8 16.2-23.4 16.2h-52.2c-10.8 0-18 7.2-18 18v334.8c0 19.8-23.4 36-52.2 36H648.8V656c0-37.8-32.4-68.4-72-68.4H440c-39.6 0-72 30.6-72 68.4v214.2H265.4c-28.8 0-52.2-16.2-52.2-36V499.4c0-10.8-7.2-18-18-18h-45c-14.4 0-21.6-9-23.4-16.2-3.6-9 0-18 7.2-23.4l343.8-277.2c19.8-16.2 48.6-16.2 68.4 0L890 441.8c7.2 5.4 10.8 14.4 7.2 23.4z" p-id="3127"></path></svg>